PathFileType	3	(X/Y/Z)	C:\Users\koon_\Desktop\
DataRate	CameraRate	NumFrames	NumMarkers	Units	OrigDataRate	OrigDataStartFrame	OrigNumFrames
100.0	100.0	7	27	mm	100.0	4397	5024	
Frame#	Time	get:LFHD			get:RFHD			get:LBHD			get:RBHD			get:C7			get:T10			get:CLAV			get:STRN			get:RBAK			get:LSHO			get:LUPA			get:LELB			get:LFRA			get:LWRA			get:LWRB			get:LFIN			get:RSHO			get:RUPA			get:RELB			get:RFRA			get:RWRA			get:RWRB			get:RFIN			get:LASI			get:RASI			get:LPSI			get:RPSI			
		X1	Y1	Z1	X2	Y2	Z2	X3	Y3	Z3	X4	Y4	Z4	X5	Y5	Z5	X6	Y6	Z6	X7	Y7	Z7	X8	Y8	Z8	X9	Y9	Z9	X10	Y10	Z10	X11	Y11	Z11	X12	Y12	Z12	X13	Y13	Z13	X14	Y14	Z14	X15	Y15	Z15	X16	Y16	Z16	X17	Y17	Z17	X18	Y18	Z18	X19	Y19	Z19	X20	Y20	Z20	X21	Y21	Z21	X22	Y22	Z22	X23	Y23	Z23	X24	Y24	Z24	X25	Y25	Z25	X26	Y26	Z26	X27	Y27	Z27	
4397	43.96	25.16633	1546.7498	2.9395528	-114.23949	1535.121	-41.856022	66.005936	1531.3397	-127.89753	-79.940277	1514.9667	-169.74976	16.377222	1338.6047	-183.33727	36.254284	1125.8568	-225.89209	-21.327524	1231.3873	-0.97999907	-26.664618	1075.6652	32.460934	-62.690182	1260.7465	-232.43973	155.53854	1334.3342	-71.690628	224.12746	1132.8917	-5.750484	284.55664	1029.0643	-21.781523	237.56342	1101.5165	20.044127	123.07594	1168.2356	95.260521	138.24927	1116.2362	146.12953	88.201881	1173.5045	181.79961	-139.33342	1326.7882	-121.74113	-225.04408	1213.5356	-149.81134	-283.08536	1020.0208	-222.59541	-257.06635	1087.7422	-83.542007	-227.41498	1108.7889	6.1241541	-257.46936	1041.5305	12.33731	-231.71869	1099.7402	84.783577	126.68954	886.75671	-23.49758	-161.8869	909.44116	-76.297081	69.101006	937.3797	-217.7485	-16.480385	936.26752	-237.86568
4398	43.97	24.689945	1546.9261	2.9952669	-114.59458	1535.3579	-42.148129	65.660339	1530.762	-127.6418	-79.945045	1514.5569	-169.86853	16.678293	1338.4155	-182.35893	37.423565	1125.9944	-225.1635	-22.634382	1231.1787	-0.76256454	-27.921719	1075.2957	32.521782	-61.33289	1260.6908	-232.6429	154.92152	1334.3856	-69.511223	224.29082	1132.8602	-4.354661	285.36243	1029.5131	-21.047455	237.93782	1101.4287	21.389563	122.84299	1166.7521	96.851563	138.50795	1114.6741	147.43083	88.222992	1171.5308	183.45332	-139.7771	1326.3134	-122.80746	-225.0844	1213.3352	-154.20413	-281.82324	1021.1067	-231.64102	-260.56223	1086.1185	-89.816528	-233.85468	1105.6532	-0.051254418	-263.91052	1038.3995	4.3116436	-241.08342	1095.7101	78.538033	126.08941	886.59503	-22.621582	-162.24097	909.46741	-77.146576	69.690796	937.38562	-217.25372	-15.800228	936.27081	-237.89319
4399	43.98	24.15308	1547.119	3.0774584	-114.97168	1535.5885	-42.456059	65.557594	1530.1973	-127.3136	-79.899101	1514.4055	-170.79631	17.121868	1338.4808	-181.57413	38.584663	1126.2333	-224.52956	-23.979946	1230.9401	-0.55458373	-29.303787	1074.9915	32.393082	-60.100624	1260.6864	-232.7787	154.21649	1334.4386	-67.439018	224.52629	1132.8521	-2.8591814	286.12192	1029.9697	-20.184435	238.19026	1101.3137	22.624399	123.02189	1165.7212	98.571579	138.69475	1113.1332	148.71629	88.259773	1169.6406	185.08595	-140.1736	1325.8761	-123.86218	-225.07971	1213.2346	-158.54472	-280.4364	1022.5041	-240.65622	-263.36884	1085.0251	-97.969124	-240.16957	1103.0905	-6.3784595	-270.36374	1035.9015	-3.9236085	-250.74974	1092.3872	71.707565	125.44166	886.40839	-21.741398	-162.5443	909.51715	-78.042442	70.247864	937.3385	-216.74278	-15.156089	936.32721	-237.94713
4400	43.99	23.68132	1547.2633	3.1351595	-115.3561	1535.8125	-42.826916	65.464012	1529.5729	-127.05848	-80.013931	1513.9352	-170.84898	17.57291	1338.7408	-180.97771	39.674042	1126.3906	-223.86139	-25.247824	1230.6938	-0.12283021	-29.389242	1073.8855	26.934258	-58.829437	1260.672	-232.94913	153.46512	1334.4707	-65.33387	224.56567	1132.8519	-1.4651507	286.76248	1030.4594	-19.32604	238.49352	1101.2213	23.852505	122.70087	1164.3188	100.12892	138.93962	1111.66	149.92711	88.302315	1167.9384	186.58772	-140.50241	1325.4932	-124.91161	-224.8058	1213.2577	-162.72409	-278.7674	1024.1591	-249.44781	-266.2616	1084.4832	-105.45764	-246.69691	1101.2295	-12.920741	-276.86438	1034.0189	-12.361035	-260.91553	1089.6605	64.320717	124.79108	886.21124	-20.973972	-162.91495	909.55054	-78.960564	70.778816	937.30823	-216.20357	-14.484067	936.36096	-237.97618
4401	44	23.151268	1547.3762	3.2243321	-115.76054	1536.063	-43.111282	65.273666	1528.9781	-126.7312	-80.097252	1513.6749	-171.03749	17.939011	1338.8691	-180.24164	40.756554	1126.6161	-223.15994	-26.563864	1230.5201	0.23979473	-30.703226	1073.5652	26.837831	-57.686878	1260.7792	-233.18283	152.69066	1334.5172	-63.25499	224.54839	1132.8564	-0.01878594	287.31854	1030.9235	-18.55831	238.64801	1101.2223	24.97764	122.91721	1163.592	101.75878	139.22705	1110.5242	151.21713	88.39122	1166.5034	188.11703	-140.73465	1325.2108	-125.91648	-224.2832	1213.3241	-166.72768	-276.9874	1026.0513	-257.9808	-269.33191	1084.4652	-112.96864	-253.69231	1100.0953	-19.907505	-283.44165	1032.8519	-20.782495	-270.68982	1087.8369	57.103756	124.14113	886.08661	-20.153944	-163.24968	909.55316	-79.850182	71.357018	937.29773	-215.6758	-13.786006	936.35559	-237.9371
4402	44.01	22.656279	1547.4438	3.3772001	-116.17944	1536.3135	-43.419777	65.342575	1528.415	-126.38399	-80.132347	1512.8149	-170.15739	18.317595	1339.0048	-179.56493	41.761036	1126.8042	-222.48949	-27.749693	1230.3597	0.55684072	-33.200134	1074.0751	31.920746	-56.494347	1260.9214	-233.39554	151.89561	1334.6014	-61.381248	224.46304	1132.8621	1.2854968	287.71768	1031.4315	-17.835802	238.75832	1101.3335	26.007738	122.22667	1162.4034	102.97185	139.60509	1109.7349	152.40457	88.455437	1165.4291	189.42392	-140.80132	1324.9847	-126.95354	-223.56702	1213.5005	-170.53398	-275.02655	1027.9823	-265.75616	-272.49118	1084.9401	-120.40047	-260.25775	1099.5808	-26.39477	-290.26874	1032.4226	-29.055414	-280.5036	1086.8165	49.26646	123.4762	885.94501	-19.322332	-163.23813	909.31311	-81.5214	71.898048	937.2984	-215.22299	-13.061924	936.40356	-237.98769
4403	44.02	22.14551	1547.5009	3.4650214	-116.56155	1536.5652	-43.546986	64.925323	1527.7639	-126.0975	-80.170189	1512.6775	-170.88374	18.726011	1339.127	-178.83688	42.735886	1127.0244	-221.87364	-29.019714	1230.2706	0.82348853	-34.368893	1073.8029	31.620697	-55.351376	1261.0776	-233.64444	151.16969	1334.7609	-59.585518	224.31404	1132.9496	2.5087657	288.07349	1031.983	-17.136055	238.81511	1101.5469	27.004604	121.85301	1161.6301	104.10936	140.17766	1109.3173	153.6745	88.635048	1164.6971	190.72577	-140.82536	1324.8307	-127.97695	-222.76175	1213.7284	-174.12064	-273.09656	1029.9554	-273.11029	-275.75064	1085.714	-127.36687	-267.30093	1099.9341	-33.024555	-297.37238	1032.8732	-37.084518	-290.46579	1087.0742	42.180298	122.86039	885.83173	-18.559181	-163.51767	909.33026	-82.578606	72.44989	937.29907	-214.66966	-12.409388	936.40656	-237.99475
